<svg xmlns="http://www.w3.org/2000/svg" viewBox="0 0 32 32">
  <rect width="32" height="32" rx="9" fill="#f5c518"/>
  <g fill="none" stroke="#123b88" stroke-width="2" stroke-linecap="round">
    <path d="M12 16 C 7 15, 4.5 13, 3.5 10"/>
    <path d="M12 18.5 C 8 18, 5 16.5, 4.5 14"/>
    <path d="M12 21 C 9 20.5, 6.5 19.5, 5.5 17.5"/>
    <path d="M20 16 C 25 15, 27.5 13, 28.5 10"/>
    <path d="M20 18.5 C 24 18, 27 16.5, 27.5 14"/>
    <path d="M20 21 C 23 20.5, 25.5 19.5, 26.5 17.5"/>
  </g>
  <g fill="#123b88">
    <rect x="11" y="14" width="10" height="9" rx="3"/>
    <rect x="11" y="9.5" width="2.3" height="6" rx="1.15"/>
    <rect x="13.9" y="8" width="2.3" height="7.5" rx="1.15"/>
    <rect x="16.8" y="8.5" width="2.3" height="7" rx="1.15"/>
    <rect x="19.7" y="10" width="2.3" height="5.5" rx="1.15"/>
  </g>
</svg>
